<?xml version="1.0" encoding="utf-8"?>
<!-- Generator: Adobe Illustrator 23.0.5, SVG Export Plug-In . SVG Version: 6.00 Build 0)  -->
<svg version="1.1" id="Layer_1" xmlns="http://www.w3.org/2000/svg" xmlns:xlink="http://www.w3.org/1999/xlink" x="0px" y="0px"
	 viewBox="0 0 434.7 451.3" style="enable-background:new 0 0 434.7 451.3;" xml:space="preserve">
<style type="text/css">
	.st0{clip-path:url(#XMLID_3_);}
	.st1{fill:#F16044;}
	.st2{fill:#E74925;}
	.st3{fill:#F15B42;}
	.st4{fill:#921D1D;}
</style>
<g>
	<defs>
		<path id="XMLID_1_" d="M59.5,72.5c0.7-1.3,1.6-2.5,2.6-3.7c10.5-12.9,29.1-14,44.4-14.2c31.3-0.4,62.6-0.1,93.9-0.2
			c62.7-0.1,125.4-0.3,188.1-0.4c10.4,0,21.1,0,30.5,4.3c27.9,12.6,11.2,45,4.8,65.5c-9.5,31-17.5,62.5-23.9,94.3
			c-4,19.7-7.9,43.6-26.3,55.3c-14.6,9.3-37.7,7-54.2,8.1c-23.7,1.5-47.5,2.7-71.3,3.5c-38.2,1.2-76.4,1.4-114.6,0.6
			c-15.8-0.3-29.6,1.4-40-12.4c-8.6-11.4-11-27-13.7-40.6c-6.9-35-8.4-71-17.9-105.5C57.1,109,50.4,88,59.5,72.5z"/>
	</defs>
	<use xlink:href="#XMLID_1_"  style="overflow:visible;fill:#E74925;"/>
	<clipPath id="XMLID_3_">
		<use xlink:href="#XMLID_1_"  style="overflow:visible;"/>
	</clipPath>
	<g class="st0">
		<g>
			<path class="st1" d="M276.8-27.7c-21.3,3.3-41.6,18.3-55.3,34.5c-14.5,17.1-24.8,36.4-31.6,57.8c-6.8,21.2-9.3,44-10.5,66.1
				c-1.1,21.4-1.1,43.6,4.9,64.4c6.2,21.8,19.2,40.8,35.5,56.3c14.4,13.6,30.8,26.4,48,36.2c21,12,43.3,17.7,67.4,18.5
				c10.2,0.4,20.5,0.1,30.7,0.3c9.9,0.2,19.8,0.3,29.7-1c14.4-1.8,27.2-5.1,40-12.1c9.4-5.1,18.4-12.2,25.6-20.1
				c16.9-18.8,26.7-41.7,28-67c0.9-17-15.6-33.3-32.5-32.5c-18.3,0.8-31.6,14.3-32.5,32.5c-0.1,1.9-0.3,3.8-0.5,5.7
				c0.4-2.9,0.8-5.8,1.2-8.6c-0.9,6.2-2.5,12.1-4.9,17.9c1.1-2.6,2.2-5.2,3.3-7.8c-2.5,5.7-5.6,11-9.4,16c1.7-2.2,3.4-4.4,5.1-6.6
				c-3.9,4.9-8.2,9.3-13.1,13.2c2.2-1.7,4.4-3.4,6.6-5.1c-5,3.8-10.3,6.9-16,9.3c2.6-1.1,5.2-2.2,7.8-3.3
				c-5.6,2.2-11.3,3.6-17.2,4.5c2.9-0.4,5.8-0.8,8.6-1.2c-12.3,1.6-24.7,1-37.1,0.8c-12.4-0.1-24.8,0.2-37.2-1.3
				c2.9,0.4,5.8,0.8,8.6,1.2c-8.1-1.1-15.9-3.2-23.5-6.3c2.6,1.1,5.2,2.2,7.8,3.3c-13.6-5.8-25.7-14-37.4-23
				c2.2,1.7,4.4,3.4,6.6,5.1c-11.2-8.8-22.1-18.1-30.9-29.3c1.7,2.2,3.4,4.4,5.1,6.6c-4.3-5.7-8-11.8-10.8-18.4
				c1.1,2.6,2.2,5.2,3.3,7.8c-3.1-7.6-5-15.5-6.1-23.7c0.4,2.9,0.8,5.8,1.2,8.6c-2.7-21.6-1.3-44.1,1.5-65.6
				c-0.4,2.9-0.8,5.8-1.2,8.6c2.1-15.6,5.7-30.9,11.7-45.5c-1.1,2.6-2.2,5.2-3.3,7.8c4.3-10,9.6-19.3,16.2-27.9
				c-1.7,2.2-3.4,4.4-5.1,6.6c5-6.3,10.6-12,17-17.1c-2.2,1.7-4.4,3.4-6.6,5.1c4.8-3.7,9.9-6.8,15.5-9.2c-2.6,1.1-5.2,2.2-7.8,3.3
				c3.6-1.4,7.2-2.4,11-3c7.5-1.2,15.8-8.7,19.4-14.9c4.1-7,5.8-17.2,3.3-25c-2.5-7.9-7.4-15.5-14.9-19.4
				C293.6-28.7,285.9-29.1,276.8-27.7L276.8-27.7z"/>
		</g>
	</g>
	<g class="st0">
		<g>
			<path class="st1" d="M298.3,27.4c-20.8,1.1-34.2,14.2-41.2,32.8c-3.4,9.1-5.4,18.9-6.9,28.5c-2,12.4-3.5,24.9-3.8,37.4
				c-0.3,13.4-0.8,30,6.2,41.6c8.4,13.9,25.2,20.1,40.7,16c8-2.1,15.9-7.4,21.5-13.4c8.3-9.1,13.2-20.6,15.6-32.6
				c4.6-22.8,6.9-46.3,6.4-69.6c-0.2-11.8-0.3-25.2-3.4-36.6c-2.7-9.9-8.9-18.7-17.6-24.2c-11.4-7.2-27.2-7-38.6,0.2
				c-13.6,8.6-20.4,22.8-26.1,37.1c-3.7,9.3-6.7,18.8-9.2,28.5c-5.5,21.7-8.4,44.1-10.3,66.3c-1.8,21.6-5.2,45.3,4.8,65.4
				c7.8,15.6,25.4,25.9,42.9,24.4c19.2-1.7,35.7-13.4,44.1-30.8c5.7-12,9.9-24.4,11.8-37.5c2.4-16.6,2.1-31.4-0.5-48
				c-0.8-4.9-4.9-10.9-8.4-14.3c-5.1-5.1-11.6-8-18.7-8.9c-13.5-1.8-24.8,4.6-32.4,15.5c-14.3,20.6-22.8,45.1-28.3,69.4
				c-2.6,11.5-4.7,23.2-6.6,34.9c-1.8,11.4-2.3,22,3.8,32.6c9,15.4,27.6,21.4,44.2,16.2c13.6-4.3,26.6-14.5,36.5-24.3
				c8.7-8.7,16.4-18.9,22.4-29.7c13-23.3,19.3-49.1,20.9-75.7c1.9-31.6-4.1-63.5-10.7-94.3c-2.3-10.9-12.3-19.8-22.7-22.7
				c-12-3.3-22.4,0.8-31.6,8.4c-11.8,9.7-14.2,24.7-16,38.8c-1.3,9.9-2.3,19.9-2.9,29.9c-1.3,19.7-1.5,39.4-0.4,59.1
				c0.8,14.7,3,28.1,13.1,39.5c13.2,14.8,36.5,16.3,52.8,5.7c19.3-12.5,31.1-32.1,38-53.6c7.3-22.3,9.1-46.8,9.5-70.2
				c0.2-16.2-12.5-29.8-28.2-31.9c-6.9-0.9-14.7,0-20.7,3.9c-6.6,4.2-13.8,11.3-14.9,19.4c-3.7,27-7.2,54-10.4,81.1
				c-1.4,12.1-2.8,24.2-4.1,36.3c-1.5,14-4.6,29.3,0.6,42.9c3.7,9.8,9,16.9,18.8,21.1c10.2,4.3,19.1,2.8,28.9-1.6
				c30.3-13.5,51.2-50,47.9-82.9c-0.6-5.7-1.5-11.3-4.4-16.4c-3.6-6.1-9.1-10.6-15.5-13.3c-11-4.6-27.4-3.3-35.5,6.7
				c-8,9.9-15.7,20.1-22,31.1c-4.7,8.2-7.7,17.6-13.4,25.1c1.7-2.2,3.4-4.4,5.1-6.6c-0.9,1.1-1.8,2-2.8,2.9c2.2-1.7,4.4-3.4,6.6-5.1
				c-1.1,0.8-2.1,1.4-3.3,2c2.6-1.1,5.2-2.2,7.8-3.3c-0.8,0.3-1.7,0.6-2.6,0.8c2.9-0.4,5.8-0.8,8.6-1.2c-9.2,1.1-17.7,1.3-26,6
				c-5.2,2.9-10,6.8-14.1,11.1c-15.9,16.5-14.6,41.6,1.4,57.6c9.7,9.7,24.3,15.2,38,14.4c14.3-0.9,26.1-6.8,39.1-12.3
				c-2.6,1.1-5.2,2.2-7.8,3.3c13.7-5.7,28.2-8.7,42-14c10.1-3.9,19.7-8.8,27.2-16.9c7.6-8.2,12.3-17,15.9-27.4
				c4.9-14,5.2-29.8,5.6-44.5c0.5-17.5-0.2-35.4-4.7-52.4c-8.7-33.6-36.4-67.1-73.3-69.2c-15-0.8-29.9,6.6-37.4,19.8
				c-5.6,9.9-6.3,21.9-5.1,32.9c1.9,18,7.1,35.7,17.7,50.6c3.4,4.7,7.1,9.8,11.3,13.9c9.3,9.1,22.8,13.2,35.5,10
				c16.9-4.3,25.3-18,30.8-33.2c6.7-18.4,9.7-38.5,9.7-58c0-17-15-33.3-32.5-32.5c-8.4,0.4-17.1,3.1-23,9.5
				c-6.2,6.8-8.4,13.9-9.5,23c-2.9,24.1-5.8,48.1-8.7,72.2c21.3-2.9,42.6-5.8,63.8-8.6c-5.1-19.3-9-38.9-11.7-58.7
				c0.4,2.9,0.8,5.8,1.2,8.6c-1-7.7-1.9-15.3-2.5-23c-0.8-8.8-3.1-16.6-9.5-23c-5.6-5.6-14.9-9.9-23-9.5
				c-16.4,0.7-34.1,14.4-32.5,32.5c2.6,30.5,7.6,60.8,15.4,90.4c4.1,15.7,20,25.4,35.7,23.3c6.8-0.9,13.9-3.7,18.7-8.9
				c6.2-6.8,8.4-13.9,9.5-23c2.9-24.1,5.8-48.1,8.7-72.2c-21.7,0-43.3,0-65,0c0,6.9-0.5,13.7-1.4,20.5c0.4-2.9,0.8-5.8,1.2-8.6
				c-1.6,11.1-4.5,21.9-8.5,32.4c1.1-2.6,2.2-5.2,3.3-7.8c-0.7,1.7-1.6,3.2-2.7,4.7c1.7-2.2,3.4-4.4,5.1-6.6
				c-0.3,0.3-0.6,0.6-0.9,0.9c2.2-1.7,4.4-3.4,6.6-5.1c-0.6,0.6-1.3,1-2.1,1.2c2.6-1.1,5.2-2.2,7.8-3.3c-0.4,0.1-0.8,0.1-1.1,0.2
				c2.9-0.4,5.8-0.8,8.6-1.2c-0.4,0-0.8-0.1-1.2-0.1c5.5,1.5,10.9,3,16.4,4.4c-1-0.3-1.9-0.8-2.7-1.6c2.2,1.7,4.4,3.4,6.6,5.1
				c-1.9-1.9-3.6-3.9-5.2-6.1c1.7,2.2,3.4,4.4,5.1,6.6c-3.5-4.8-6.5-9.8-8.9-15.3c1.1,2.6,2.2,5.2,3.3,7.8c-2.5-6-4.2-12.1-5.1-18.6
				c0.4,2.9,0.8,5.8,1.2,8.6c-0.6-5.1-1-10.4-0.3-15.6c-0.4,2.9-0.8,5.8-1.2,8.6c0.1-0.9,0.4-1.7,0.8-2.6c-1.1,2.6-2.2,5.2-3.3,7.8
				c0.2-0.4,0.5-0.8,0.7-1.1c-1.7,2.2-3.4,4.4-5.1,6.6c0.3-0.3,0.6-0.6,0.9-0.9c-2.2,1.7-4.4,3.4-6.6,5.1c0.7-0.6,1.4-1,2.3-1.2
				c-2.6,1.1-5.2,2.2-7.8,3.3c0.4-0.1,0.9-0.2,1.3-0.3c-2.9,0.4-5.8,0.8-8.6,1.2c1.4-0.2,2.7-0.2,4.1-0.1c-2.9-0.4-5.8-0.8-8.6-1.2
				c2.9,0.5,5.5,1.3,8.2,2.3c-2.6-1.1-5.2-2.2-7.8-3.3c4,1.7,7.7,3.9,11.1,6.5c-2.2-1.7-4.4-3.4-6.6-5.1c3.8,3.1,7.2,6.5,10.2,10.4
				c-1.7-2.2-3.4-4.4-5.1-6.6c3.6,4.8,6.5,9.8,8.8,15.3c-1.1-2.6-2.2-5.2-3.3-7.8c3.1,7.5,4.9,15.3,6,23.3c-0.4-2.9-0.8-5.8-1.2-8.6
				c2.1,17.4,1.9,35.7-0.2,53.1c0.4-2.9,0.8-5.8,1.2-8.6c-0.8,5.7-2,11.3-4.1,16.7c1.1-2.6,2.2-5.2,3.3-7.8c-1.3,3-2.8,5.7-4.8,8.4
				c1.7-2.2,3.4-4.4,5.1-6.6c-1.8,2.3-3.8,4.2-6.1,6c2.2-1.7,4.4-3.4,6.6-5.1c-2.7,1.9-5.5,3.4-8.5,4.6c2.6-1.1,5.2-2.2,7.8-3.3
				c-8.6,3.3-17.7,5.2-26.4,8.1c-11.4,3.8-22.3,8.8-33.3,13.5c2.6-1.1,5.2-2.2,7.8-3.3c-3.9,1.6-7.7,2.8-11.9,3.5
				c2.9-0.4,5.8-0.8,8.6-1.2c-2,0.2-3.8,0.2-5.8-0.1c2.9,0.4,5.8,0.8,8.6,1.2c-1.8-0.3-3.5-0.8-5.2-1.5c2.6,1.1,5.2,2.2,7.8,3.3
				c-1.2-0.6-2.3-1.2-3.4-2c2.2,1.7,4.4,3.4,6.6,5.1c-1-0.9-1.9-1.7-2.7-2.7c1.7,2.2,3.4,4.4,5.1,6.6c-0.5-0.7-1-1.4-1.3-2.2
				c1.1,2.6,2.2,5.2,3.3,7.8c-0.4-0.9-0.7-1.8-0.9-2.7c0.4,2.9,0.8,5.8,1.2,8.6c0-0.5,0-1,0-1.5c-0.4,2.9-0.8,5.8-1.2,8.6
				c0.1-0.5,0.3-1,0.4-1.5c-1.1,2.6-2.2,5.2-3.3,7.8c0.3-0.4,0.5-0.8,0.8-1.2c-1.7,2.2-3.4,4.4-5.1,6.6c1.8-1.9,3.7-3.7,5.8-5.4
				c-2.2,1.7-4.4,3.4-6.6,5.1c0.9-0.6,1.8-1.2,2.7-1.7c-2.6,1.1-5.2,2.2-7.8,3.3c1-0.5,2-0.8,3-1c-2.9,0.4-5.8,0.8-8.6,1.2
				c5.5-0.7,11.2-0.4,16.5-2c7.1-2.2,13.4-5.8,18.9-10.9c5.8-5.4,10.1-12.2,13.5-19.3c5.9-12.7,12.9-24.6,21.4-35.7
				c-1.7,2.2-3.4,4.4-5.1,6.6c1.1-1.4,2.2-2.8,3.3-4.1c-18.5-7.7-37-15.3-55.5-23c0.4,4.2,0.4,8.4-0.2,12.7c0.4-2.9,0.8-5.8,1.2-8.6
				c-0.7,4.7-2,9.2-3.8,13.6c1.1-2.6,2.2-5.2,3.3-7.8c-1.9,4.4-4.2,8.4-7.1,12.2c1.7-2.2,3.4-4.4,5.1-6.6c-2.9,3.7-6.2,7.1-9.9,10
				c2.2-1.7,4.4-3.4,6.6-5.1c-3.4,2.6-7,4.7-10.9,6.4c15.9,6.5,31.8,12.9,47.7,19.4c-0.7-1.7-1.1-3.3-1.4-5.1
				c0.4,2.9,0.8,5.8,1.2,8.6c-1.2-10.2,1.1-21,2.2-31.1c1.2-11.1,2.5-22.2,3.8-33.3c2.6-21.9,5.4-43.7,8.3-65.6
				c-0.4,2.9-0.8,5.8-1.2,8.6c0.4-2.6,0.7-5.2,1.1-7.8c-21.3-2.9-42.6-5.8-63.8-8.6c-0.2,11.4-0.8,22.7-2.3,34
				c0.4-2.9,0.8-5.8,1.2-8.6c-1.7,11.9-4.2,23.6-8.7,34.7c1.1-2.6,2.2-5.2,3.3-7.8c-2.4,5.7-5.3,11-8.9,15.9
				c1.7-2.2,3.4-4.4,5.1-6.6c-2.8,3.6-5.9,6.8-9.5,9.6c2.2-1.7,4.4-3.4,6.6-5.1c-1.9,1.4-3.7,2.5-5.8,3.4c2.6-1.1,5.2-2.2,7.8-3.3
				c-0.5,0.2-1.1,0.3-1.6,0.5c2.9-0.4,5.8-0.8,8.6-1.2c-1.1,0.2-2.2,0.2-3.4,0c2.9,0.4,5.8,0.8,8.6,1.2c-0.4-0.1-0.7-0.2-1.1-0.3
				c2.6,1.1,5.2,2.2,7.8,3.3c-0.7-0.3-1.3-0.7-1.9-1.1c2.2,1.7,4.4,3.4,6.6,5.1c-0.6-0.5-1.1-1-1.5-1.6c1.7,2.2,3.4,4.4,5.1,6.6
				c-0.7-1-1.2-2-1.7-3.1c1.1,2.6,2.2,5.2,3.3,7.8c-0.7-2-1.1-4-1.4-6.1c0.4,2.9,0.8,5.8,1.2,8.6c-3.4-32-1.2-65.5,2.9-97.3
				c-0.4,2.9-0.8,5.8-1.2,8.6c0.5-3.3,1.1-6.5,2.3-9.6c-1.1,2.6-2.2,5.2-3.3,7.8c0.6-1.3,1.3-2.3,2.1-3.5c-1.7,2.2-3.4,4.4-5.1,6.6
				c0.6-0.7,1.3-1.3,2-1.9c-18.1-4.8-36.2-9.6-54.3-14.3c2.8,13.2,5.4,26.4,7.2,39.8c-0.4-2.9-0.8-5.8-1.2-8.6
				c2.6,19.7,3.6,39.5,0.9,59.2c0.4-2.9,0.8-5.8,1.2-8.6c-1.7,11.6-4.7,22.9-9.2,33.8c1.1-2.6,2.2-5.2,3.3-7.8
				c-3.9,9.2-8.9,17.9-15,25.9c1.7-2.2,3.4-4.4,5.1-6.6c-4.9,6.2-10.4,11.8-16.6,16.7c2.2-1.7,4.4-3.4,6.6-5.1
				c-4.4,3.3-8.9,6.3-13.9,8.7c2.6-1.1,5.2-2.2,7.8-3.3c-0.9,0.4-1.9,0.7-3,0.9c2.9-0.4,5.8-0.8,8.6-1.2c-0.5,0-1,0-1.5,0
				c2.9,0.4,5.8,0.8,8.6,1.2c-0.5-0.2-0.9-0.3-1.4-0.5c2.6,1.1,5.2,2.2,7.8,3.3c-0.3-0.2-0.6-0.5-1-0.7c3.9,3.9,7.8,7.8,11.7,11.7
				c-0.6-0.6-1-1.2-1.2-2c1.1,2.6,2.2,5.2,3.3,7.8c-0.1-0.4-0.2-0.8-0.3-1.2c0.4,2.9,0.8,5.8,1.2,8.6c-0.1-1.4-0.1-2.6,0-3.9
				c-0.4,2.9-0.8,5.8-1.2,8.6c3.6-24.7,8.5-49.9,18.2-73c-1.1,2.6-2.2,5.2-3.3,7.8c3.7-8.7,8.2-17,13.6-24.8
				c-19.8-2.6-39.6-5.2-59.4-7.8c0.2,1.2,0.4,2.4,0.5,3.6c-0.4-2.9-0.8-5.8-1.2-8.6c1.1,9.1,1,18.1-0.1,27.1
				c0.4-2.9,0.8-5.8,1.2-8.6c-1.3,9.5-3.8,18.8-7.6,27.6c1.1-2.6,2.2-5.2,3.3-7.8c-1.5,3.4-3.2,6.5-5.4,9.4c1.7-2.2,3.4-4.4,5.1-6.6
				c-1.4,1.6-2.8,3-4.4,4.3c2.2-1.7,4.4-3.4,6.6-5.1c-1.4,0.9-2.6,1.6-4.1,2.2c2.6-1.1,5.2-2.2,7.8-3.3c-1,0.4-2,0.7-3,0.8
				c2.9-0.4,5.8-0.8,8.6-1.2c-1.6,0.2-3,0.3-4.6,0.1c2.9,0.4,5.8,0.8,8.6,1.2c-1-0.1-2-0.4-3-0.8c2.6,1.1,5.2,2.2,7.8,3.3
				c-1.2-0.5-2.1-1.1-3.1-1.9c2.2,1.7,4.4,3.4,6.6,5.1c-0.9-0.8-1.6-1.6-2.4-2.6c1.7,2.2,3.4,4.4,5.1,6.6c-0.7-1-1.2-2-1.8-3.1
				c1.1,2.6,2.2,5.2,3.3,7.8c-1-2.4-1.6-4.8-2-7.4c0.4,2.9,0.8,5.8,1.2,8.6c-1.2-9.8,0-19.9,0.7-29.7c0.7-11.3,1.8-22.5,3.2-33.7
				c-0.4,2.9-0.8,5.8-1.2,8.6c3.1-22.7,8.1-45.3,16.9-66.5c-1.1,2.6-2.2,5.2-3.3,7.8c1.7-3.9,3.6-7.6,6.1-11
				c-1.7,2.2-3.4,4.4-5.1,6.6c1.3-1.6,2.7-3.1,4.3-4.5c-2.2,1.7-4.4,3.4-6.6,5.1c0.4-0.3,0.9-0.5,1.3-0.8c-2.6,1.1-5.2,2.2-7.8,3.3
				c0.5-0.1,1-0.3,1.4-0.4c-2.9,0.4-5.8,0.8-8.6,1.2c0.4,0,0.8,0,1.1,0c-2.9-0.4-5.8-0.8-8.6-1.2c0.3,0.1,0.7,0.2,1,0.3
				c-2.6-1.1-5.2-2.2-7.8-3.3c0.3,0.2,0.6,0.4,0.9,0.6c-2.2-1.7-4.4-3.4-6.6-5.1c0.3,0.3,0.5,0.5,0.8,0.8c-1.7-2.2-3.4-4.4-5.1-6.6
				c0.5,0.6,0.9,1.3,1.3,2.1c-1.1-2.6-2.2-5.2-3.3-7.8c0.6,1.6,1,3.2,1.3,5c-0.4-2.9-0.8-5.8-1.2-8.6c2.4,22.9,2.1,45.9-0.8,68.7
				c0.4-2.9,0.8-5.8,1.2-8.6c-1.3,9.7-2.5,19.9-6.2,29c1.1-2.6,2.2-5.2,3.3-7.8c-0.9,2.1-2,4-3.4,5.8c1.7-2.2,3.4-4.4,5.1-6.6
				c-0.9,1-1.7,1.9-2.7,2.8c2.2-1.7,4.4-3.4,6.6-5.1c-1.1,0.8-2.1,1.5-3.3,2.2c2.6-1.1,5.2-2.2,7.8-3.3c-0.5,0.2-1,0.4-1.5,0.6
				c2.9-0.4,5.8-0.8,8.6-1.2c-0.5,0.1-1,0.1-1.6,0.2c2.9,0.4,5.8,0.8,8.6,1.2c-0.5-0.1-1-0.3-1.5-0.4c4.8,2.8,9.6,5.6,14.3,8.4
				c-0.3-0.3-0.6-0.6-0.9-0.9c1.7,2.2,3.4,4.4,5.1,6.6c-0.2-0.4-0.4-0.8-0.6-1.1c1.1,2.6,2.2,5.2,3.3,7.8c-0.1-0.4-0.2-0.9-0.3-1.3
				c0.4,2.9,0.8,5.8,1.2,8.6c-1.9-15.2-1.1-30.9,0.9-46c-0.4,2.9-0.8,5.8-1.2,8.6c1.6-11.5,3.6-23.8,8-34.6
				c-1.1,2.6-2.2,5.2-3.3,7.8c0.7-1.6,1.6-3.1,2.6-4.5c-1.7,2.2-3.4,4.4-5.1,6.6c0.8-1,1.6-1.7,2.6-2.5c-2.2,1.7-4.4,3.4-6.6,5.1
				c0.3-0.2,0.7-0.4,1-0.6c-2.6,1.1-5.2,2.2-7.8,3.3c0.7-0.3,1.4-0.6,2.2-0.7c-2.9,0.4-5.8,0.8-8.6,1.2c0.4,0,0.8,0,1.2-0.1
				c16.9-0.9,33.3-14.3,32.5-32.5C330,43.1,316.5,26.4,298.3,27.4L298.3,27.4z"/>
		</g>
	</g>
</g>
<g>
	<g>
		<path class="st2" d="M16.3,44.1c7,1.7,13.8,3.8,20.6,6.4c1.7,0.6,3.4,1.2,5,2c-3.5-1.7-0.7-0.3,1.2,0.6c3.3,1.5,6.5,3.1,9.7,4.8
			c10.4,5.5,24.9,3,30.8-8.1c5.5-10.4,3.1-25-8.1-30.8C60.5,11,44.7,4.8,28.3,0.7C16.9-2.2,3.4,4.3,0.6,16.4C-2,28,4.1,41,16.3,44.1
			L16.3,44.1z"/>
	</g>
</g>
<g>
	<g>
		<path class="st2" d="M41.7,44c6.3,19.9,10,40.4,14.6,60.6c2.6,11.5,16.5,19.3,27.7,15.7c12-3.9,18.5-15.4,15.7-27.7
			C95.1,72.4,91.4,51.9,85.1,32c-3.5-11.2-15.8-19.6-27.7-15.7C46.2,20,37.9,32,41.7,44L41.7,44z"/>
	</g>
</g>
<path class="st2" d="M132.9,265.4c9.9,13.6,16.4,31.5,22.3,36.7c13.6,11.9,29.4,12.1,78.5,11.5c23.8-0.3,47.5,0.5,71.3,0
	c34.8-0.7,49-1.9,56.2,7.9c6.3,8.7,6,24.4-1.4,31.7c-4.5,4.4-10.6,4.9-13,5c-31.7,2.1-89.7,0.2-103.7,0c-33.7-0.5-63.4,4.5-86.7-4.2
	c-9.7-3.6-18.5-8.9-18.5-8.9s-13.6-8.2-24.4-20c-22.8-24.9-37.1-85.7-25.2-91.4C98.7,228.7,121.3,249.4,132.9,265.4z"/>
<g>
	<g>
		<path class="st3" d="M191.9,451.3c17,0,33.3-14.9,32.5-32.5c-0.8-17.6-14.3-32.5-32.5-32.5c-17,0-33.3,14.9-32.5,32.5
			C160.2,436.4,173.7,451.3,191.9,451.3L191.9,451.3z"/>
	</g>
</g>
<g>
	<g>
		<path class="st3" d="M330.2,451.3c17,0,33.3-14.9,32.5-32.5c-0.8-17.6-14.3-32.5-32.5-32.5c-17,0-33.3,14.9-32.5,32.5
			C298.5,436.4,312,451.3,330.2,451.3L330.2,451.3z"/>
	</g>
</g>
<g>
	<g>
		<path class="st4" d="M191.9,145c9.2,0,17.9-8,17.5-17.5c-0.4-9.5-7.7-17.5-17.5-17.5c-9.2,0-17.9,8-17.5,17.5
			C174.9,137,182.1,145,191.9,145L191.9,145z"/>
	</g>
</g>
<g>
	<g>
		<path class="st4" d="M287.3,145c9.2,0,17.9-8,17.5-17.5c-0.4-9.5-7.7-17.5-17.5-17.5c-9.2,0-17.9,8-17.5,17.5
			C270.3,137,277.5,145,287.3,145L287.3,145z"/>
	</g>
</g>
<g>
	<g>
		<path class="st4" d="M196,224.5c3.7-3.8,7.4-7.5,11.4-11c1.1-1,2.3-1.9,3.4-2.9c2.5-2.1-1.1,0.7,0.6-0.4c2.3-1.5,4.5-3.1,6.9-4.5
			c2.2-1.3,4.4-2.4,6.7-3.5c-3.4,1.7,0.9-0.3,1.4-0.5c1.2-0.4,2.4-0.8,3.7-1.1c1.2-0.3,2.5-0.6,3.8-0.9c4.7-1.1-3.3,0,1.6-0.2
			c2.9-0.1,5.8-0.2,8.7,0c1.2,0.1,2.4,0.2,3.6,0.3c-4.2-0.3,0.6,0.1,1.2,0.2c2.5,0.4,4.9,1,7.4,1.6c2.7,0.7,5.4,1.6,8,2.5
			c1.2,0.4,2.4,0.9,3.6,1.4c-3.6-1.3,1,0.5,1.4,0.7c4.9,2.3,9.6,5.1,14,8.4c-1.9-1.4-0.9-0.7,0.3,0.4c0.9,0.8,1.7,1.5,2.5,2.4
			c1,1,1.9,2,2.8,3c2.5,2.6-1.7-2.5,0.5,0.6c5.3,7.4,15.5,11.7,23.9,6.3c7.4-4.8,11.9-16,6.3-23.9c-16.9-23.8-45.7-36.2-74.1-38.7
			c-29.8-2.6-54.6,14.6-74.3,35.1c-6.3,6.6-7.1,18.3,0,24.7C178.2,230.8,189.3,231.6,196,224.5L196,224.5z"/>
	</g>
</g>
</svg>
